# xmcd
#
# Track frame offsets: 
#        150
#        19615
#        37779
#        72854
#        117766
#        153621
#        183187
#
# Disc length: 2905 seconds
#
# Revision: 0
# Processed by: cddbd v1.5.2PL0 Copyright (c) Steve Scherf et al.
# Submitted via: ExactAudioCopyFreeDBPlugin 1.0
#
DISCID=4b0b5707
DTITLE=Terry 'Harmonica' Bean With The Cornlickers - Hill Country Blue
DTITLE=s With Big Sound - Disc 2
DYEAR=2010
DGENRE=Blues
TTITLE0=Goin' South
TTITLE1=Crazy Mixed Up World
TTITLE2=I'm Ready
TTITLE3=Learn To Love Me
TTITLE4=Miss Betty Green
TTITLE5=Red Dress
TTITLE6=So Long
EXTD=
EXTT0=
EXTT1=
EXTT2=
EXTT3=
EXTT4=
EXTT5=
EXTT6=
PLAYORDER=
